<svg width="23" height="32" viewBox="0 0 23 32" fill="none" xmlns="http://www.w3.org/2000/svg">
<path d="M21.3498 10.7227C21.3498 5.10663 16.6916 0.579387 11.0182 0.800428C5.94244 0.996909 1.73446 5.16394 1.49705 10.2397C1.36606 12.9086 2.29935 15.3646 3.90394 17.2148C5.14014 18.6475 5.9015 20.424 5.9015 22.3151V22.9127H16.446C16.446 20.8661 17.3138 18.9586 18.6973 17.4604C20.3429 15.6921 21.3498 13.3261 21.3498 10.7145V10.7227Z" fill="#FAEA9C"/>
<path d="M18.853 2.9945C16.7326 0.956006 13.9246 -0.0919129 10.9855 0.00632765C5.47587 0.219182 0.95682 4.70552 0.694846 10.207C0.563858 12.9823 1.48894 15.6593 3.29002 17.7469C4.45253 19.0896 5.0911 20.7187 5.0911 22.3233V22.9209C5.0911 23.363 5.4513 23.7232 5.89339 23.7232H16.4379C16.88 23.7232 17.2402 23.363 17.2402 22.9209C17.2402 21.1772 17.9688 19.4334 19.2787 18.0171C21.1289 16.0277 22.144 13.4407 22.144 10.7309C22.144 7.78371 20.9733 5.04117 18.853 2.9945ZM6.69569 22.1186C6.64657 20.1948 5.86884 18.2709 4.50166 16.6908C2.96256 14.9143 2.17663 12.6384 2.29124 10.2725C2.51228 5.58967 6.36004 1.78285 11.051 1.60275C13.5562 1.48813 15.9221 2.39686 17.7396 4.14063C19.5488 5.87621 20.5394 8.2176 20.5394 10.7227C20.5394 13.0314 19.6716 15.2254 18.0998 16.9201C16.7162 18.4101 15.8648 20.2439 15.6683 22.1186H6.6875H6.69569Z" fill="#D1AF00"/>
<path d="M16.446 21.9467H5.90155C5.45947 21.9467 5.09924 22.3069 5.09924 22.749V25.9254C5.09924 29.2738 7.82543 32 11.1738 32C14.5222 32 17.2483 29.2738 17.2483 25.9254V22.749C17.2483 22.3069 16.8881 21.9467 16.446 21.9467Z" fill="#D1AF00"/>
<path d="M13.7281 24.1653H12.5246L12.5901 14.7588H10.3224V24.1571H9.11894V14.7588H7.76814C7.25238 14.7424 6.54834 14.6115 5.94252 14.0957C5.29577 13.5472 4.8946 12.663 4.87004 11.7379C4.84548 10.8865 5.14838 10.1169 5.71327 9.58481C6.61381 8.73339 8.07924 8.56966 9.12714 9.20822C9.44642 9.40471 9.71657 9.66668 9.93761 9.97778C10.1914 10.3462 10.3224 10.7964 10.3224 11.2631V13.5635H12.5983L12.6147 11.2876C12.6147 10.4608 13.0404 9.71579 13.7035 9.34738C14.6532 8.83162 15.7338 9.10998 16.3887 9.60937C17.0273 10.0924 17.4285 10.9438 17.4612 11.8689C17.4939 12.794 17.1501 13.6536 16.5525 14.1694C16.1104 14.546 15.5291 14.7588 14.8578 14.767H13.7936L13.7281 24.1735V24.1653ZM7.69446 10.0105C7.27694 10.0105 6.84304 10.1579 6.54013 10.4526C6.22904 10.7473 6.05711 11.1894 6.07348 11.7052C6.08986 12.2864 6.33547 12.8595 6.72024 13.1788C7.06408 13.4735 7.48979 13.5472 7.7927 13.5554H9.11894V11.2549C9.11894 11.0257 9.06163 10.821 8.93883 10.6491C8.81603 10.469 8.66869 10.3298 8.49677 10.2234C8.25935 10.076 7.981 10.0105 7.69446 10.0105ZM14.7924 10.2643C14.6286 10.2643 14.4567 10.2971 14.3011 10.3871C14.0064 10.5508 13.8181 10.9029 13.8181 11.2958L13.8017 13.5635H14.8496C15.1116 13.5635 15.4882 13.5062 15.7747 13.2606C16.094 12.9823 16.2823 12.4665 16.266 11.9098C16.2496 11.3368 16.0285 10.8374 15.6683 10.5672C15.48 10.4199 15.1444 10.2725 14.7924 10.2725V10.2643Z" fill="#D1AF00"/>
</svg>
