<svg width="24" height="24" viewBox="0 0 24 24" fill="none" xmlns="http://www.w3.org/2000/svg">
<path d="M12 24C18.6274 24 24 18.6274 24 12C24 5.37258 18.6274 0 12 0C5.37258 0 0 5.37258 0 12C0 18.6274 5.37258 24 12 24Z" fill="#FFB6C0"/>
<path d="M12.5274 6.2911L14.0377 9.35274C14.1301 9.5411 14.3082 9.67123 14.5171 9.70205L17.8938 10.1918C18.4178 10.2671 18.6267 10.911 18.2466 11.2774L15.8014 13.661C15.6507 13.8082 15.5822 14.0171 15.6164 14.226L16.1918 17.589C16.2808 18.1096 15.7363 18.5069 15.2671 18.2603L12.2466 16.6712C12.0617 16.5753 11.8391 16.5753 11.6541 16.6712L8.63358 18.2603C8.16782 18.5069 7.61987 18.1096 7.70891 17.589L8.28425 14.226C8.3185 14.0205 8.25002 13.8082 8.09933 13.661L5.65412 11.2774C5.27741 10.9075 5.4863 10.2671 6.00685 10.1918L9.38358 9.70205C9.59248 9.67123 9.77055 9.5411 9.86302 9.35274L11.3733 6.2911C11.6062 5.81849 12.2808 5.81849 12.5171 6.2911H12.5274Z" fill="white"/>
<path d="M18.4863 11.5206C18.7568 11.2569 18.8493 10.8733 18.7329 10.5171C18.6164 10.161 18.315 9.90411 17.9418 9.84932L14.5651 9.35959C14.4692 9.34589 14.387 9.28425 14.3424 9.19864L12.8322 6.13699C12.6643 5.80137 12.3287 5.59247 11.9554 5.59247C11.5822 5.59247 11.2431 5.80137 11.0753 6.13699L9.56504 9.19864C9.52052 9.28425 9.43834 9.34589 9.34245 9.35959L5.96572 9.84932C5.59586 9.90411 5.29106 10.1575 5.17463 10.5171C5.05819 10.8733 5.15409 11.2603 5.42121 11.5206L7.86299 13.9041C7.93149 13.9726 7.96573 14.0685 7.94861 14.1644L7.37327 17.5274C7.31163 17.8973 7.45887 18.2637 7.76367 18.4863C7.9349 18.6096 8.13353 18.6747 8.33901 18.6747C8.49654 18.6747 8.65408 18.6336 8.79449 18.5616L11.815 16.9726C11.9007 16.9281 12.0034 16.9281 12.089 16.9726L15.1096 18.5616C15.4418 18.7363 15.8356 18.7089 16.1404 18.4863C16.4452 18.2671 16.5924 17.8973 16.5308 17.5274L15.9555 14.1644C15.9383 14.0685 15.9692 13.9726 16.0411 13.9041L18.4863 11.5206ZM15.4315 17.9521L12.4109 16.363C12.2671 16.2877 12.113 16.25 11.9554 16.25C11.7979 16.25 11.6438 16.2877 11.5 16.363L8.47943 17.9521C8.37669 18.0069 8.26366 17.9966 8.16777 17.9315C8.07188 17.863 8.0308 17.7569 8.05135 17.6438L8.62669 14.2808C8.68148 13.9623 8.57531 13.6404 8.34586 13.4144L5.90065 11.0308C5.81846 10.9486 5.79107 10.839 5.82532 10.7295C5.86299 10.6199 5.94861 10.5445 6.06505 10.5308L9.44176 10.0411C9.76025 9.99315 10.0376 9.79452 10.1815 9.50685L11.6918 6.44521C11.7945 6.2363 12.1164 6.2363 12.2191 6.44521L13.7294 9.50685C13.8733 9.79452 14.1472 9.99658 14.4657 10.0411L17.8424 10.5308C17.9589 10.548 18.0445 10.6199 18.0822 10.7295C18.1164 10.839 18.0924 10.9486 18.0068 11.0308L15.5616 13.4144C15.3322 13.6404 15.226 13.9623 15.2808 14.2808L15.8561 17.6438C15.8767 17.7569 15.8322 17.863 15.7397 17.9315C15.6438 18 15.5308 18.0069 15.4281 17.9555L15.4315 17.9521Z" fill="#FF3A55"/>
</svg>
