<svg width="31" height="32" viewBox="0 0 31 32" fill="none" xmlns="http://www.w3.org/2000/svg">
<path d="M30.5498 24.4876L24.3862 21.1303C24.1614 21.0143 23.8931 21.0143 23.6756 21.1375C23.458 21.2608 23.3203 21.4928 23.313 21.7466C23.2042 26.1627 18.5779 27.9103 18.5271 27.932C18.3241 28.0045 18.1646 28.164 18.0921 28.3671C18.0195 28.5701 18.0413 28.7949 18.1501 28.9834L19.7091 31.6447C19.8396 31.8622 20.0789 32 20.3327 32H24.0454C27.8378 32 30.9196 28.9182 30.9196 25.1258C30.9196 24.8575 30.7746 24.6182 30.5426 24.4876H30.5498Z" fill="#2F7EA7"/>
<path d="M12.3925 27.9248C12.349 27.9103 7.72265 26.1772 7.61388 21.7394C7.61388 21.4856 7.46885 21.2536 7.25131 21.1303C7.03377 21.007 6.76547 20.9998 6.54068 21.123L0.37706 24.4804C0.145018 24.6037 0 24.8502 0 25.1185C0 28.9109 3.08179 31.9927 6.87423 31.9927H10.5869C10.8407 31.9927 11.08 31.855 11.2105 31.6374L12.7696 28.9762C12.8783 28.7877 12.9001 28.5629 12.8276 28.3598C12.755 28.1568 12.5955 27.9973 12.3925 27.9248Z" fill="#2F7EA7"/>
<path d="M24.0382 21.7612L23.4001 21.4131C22.2181 20.7678 21.3407 19.6873 20.9564 18.4038L19.1653 12.436C18.984 11.8414 18.8753 11.2323 18.8245 10.6087L18.1574 1.9796C18.1066 1.27622 17.512 0.732391 16.8086 0.732391C16.0617 0.732391 15.4526 1.3415 15.4526 2.08838V23.3347C15.4526 24.4514 15.9965 25.5029 16.9174 26.141C17.367 26.4528 17.744 26.8589 18.0196 27.3375L18.7665 28.6137C18.7665 28.6137 23.9077 26.7791 24.0309 21.7685L24.0382 21.7612Z" fill="#B9E3F8" stroke="#B9E3F8" stroke-miterlimit="10"/>
<path d="M6.88147 21.7612L7.51959 21.4131C8.70155 20.7678 9.57896 19.6873 9.96328 18.4038L11.7544 12.436C11.9356 11.8414 12.0444 11.2323 12.0952 10.6087L12.7623 1.9796C12.813 1.27622 13.4077 0.732391 14.111 0.732391C14.8579 0.732391 15.467 1.3415 15.467 2.08838V23.3347C15.467 24.4514 14.9232 25.5029 14.0023 26.141C13.5527 26.4528 13.1756 26.8589 12.9001 27.3375L12.1532 28.6137C12.1532 28.6137 7.012 26.7791 6.88873 21.7685L6.88147 21.7612Z" fill="#B9E3F8" stroke="#B9E3F8" stroke-miterlimit="10"/>
<path d="M24.3862 21.1231L23.7481 20.775C22.733 20.2239 21.9861 19.303 21.6525 18.1936L19.8614 12.2257C19.7019 11.6819 19.5931 11.1235 19.5496 10.5507L18.8897 1.92162C18.81 0.848421 17.8963 0 16.8159 0C16.2938 0 15.8297 0.195801 15.4599 0.514859C15.0973 0.195801 14.626 0 14.1039 0C13.0234 0 12.117 0.84117 12.03 1.92162L11.3629 10.5507C11.3194 11.1163 11.2106 11.6819 11.0511 12.2257L9.26 18.1936C8.92644 19.303 8.17955 20.2239 7.16436 20.775L6.52627 21.1231C6.28697 21.2536 6.14193 21.5074 6.14919 21.7757C6.28696 27.4535 12.0808 29.3316 12.1388 29.3316C12.3926 29.3316 12.6319 29.1938 12.7624 28.9763L13.5093 27.7C13.7341 27.3157 14.0314 26.9894 14.4012 26.7356C14.8145 26.4455 15.1698 26.083 15.4526 25.6769C15.7354 26.083 16.0835 26.4455 16.5041 26.7356C16.8739 26.9894 17.1712 27.3157 17.396 27.7L18.1429 28.9763C18.2734 29.1938 18.5127 29.3316 18.7665 29.3316C18.8462 29.3316 18.9333 29.3171 19.0058 29.2881C19.0638 29.2663 24.6183 27.236 24.7488 21.7757C24.7488 21.5002 24.611 21.2536 24.3717 21.1231H24.3862ZM19.071 27.6855L18.6505 26.9749C18.3169 26.4093 17.8746 25.9307 17.338 25.5536C16.6128 25.0533 16.185 24.2266 16.185 23.342V2.09564C16.185 1.74758 16.4678 1.46478 16.8159 1.46478C17.1422 1.46478 17.4177 1.71857 17.4395 2.04488L18.1066 10.6739C18.1574 11.3483 18.2806 12.0082 18.4764 12.6535L20.2675 18.6214C20.7098 20.1006 21.7033 21.3189 23.0593 22.0657L23.2985 22.1963C22.994 25.4158 20.2965 27.1054 19.0855 27.7L19.071 27.6855ZM14.7347 23.3347C14.7347 24.2121 14.3069 25.0388 13.5818 25.5464C13.0379 25.9234 12.5956 26.402 12.2693 26.9676L11.8487 27.6855C10.6378 27.0909 7.93302 25.4014 7.63572 22.1818L7.875 22.0512C9.231 21.3116 10.2244 20.0934 10.6668 18.6068L12.4578 12.639C12.6536 11.9937 12.7769 11.3338 12.8276 10.6594L13.4948 2.03036C13.5165 1.70405 13.7921 1.45026 14.1184 1.45026C14.4665 1.45026 14.7493 1.73306 14.7493 2.08112V23.3275L14.7347 23.3347Z" fill="#2F7EA7"/>
</svg>
