<svg width="35" height="32" viewBox="0 0 35 32" fill="none" xmlns="http://www.w3.org/2000/svg">
<path d="M19.0148 1.70046L22.7088 9.18902C22.935 9.64973 23.3705 9.968 23.8815 10.0434L32.1407 11.2412C33.4223 11.4255 33.9333 13.0003 33.0035 13.8966L27.0227 19.7266C26.6541 20.0868 26.4866 20.5977 26.5704 21.1087L27.9776 29.3344C28.1954 30.6076 26.8635 31.5793 25.7159 30.9762L18.3279 27.0895C17.8756 26.855 17.3311 26.855 16.8788 27.0895L9.49074 30.9762C8.35154 31.5793 7.0113 30.6076 7.22909 29.3344L8.63638 21.1087C8.72014 20.6061 8.55258 20.0868 8.18401 19.7266L2.20321 13.8966C1.2818 12.9919 1.79278 11.4255 3.06601 11.2412L11.3252 10.0434C11.8362 9.968 12.2717 9.64973 12.4979 9.18902L16.1919 1.70046C16.7615 0.544508 18.4117 0.544508 18.9897 1.70046H19.0148Z" fill="#FFADB9" stroke="#FFADB9" stroke-miterlimit="10"/>
<path d="M33.5982 14.4997C34.2599 13.8547 34.486 12.9165 34.2012 12.0454C33.9164 11.1742 33.1793 10.546 32.2663 10.4119L24.0071 9.21411C23.7726 9.18061 23.5715 9.02985 23.4626 8.82044L19.7686 1.33188C19.3582 0.510987 18.5373 0 17.6242 0C16.7112 0 15.8819 0.510987 15.4715 1.33188L11.7775 8.82044C11.6686 9.02985 11.4675 9.18061 11.233 9.21411L2.97382 10.4119C2.06916 10.546 1.32365 11.1658 1.03886 12.0454C0.754055 12.9165 0.988572 13.863 1.64194 14.4997L7.61436 20.3297C7.78189 20.4972 7.86565 20.7318 7.82377 20.9663L6.41653 29.192C6.26575 30.0967 6.62595 30.9929 7.37146 31.5374C7.79028 31.839 8.27611 31.9981 8.7787 31.9981C9.16402 31.9981 9.54935 31.8976 9.89278 31.7217L17.2808 27.835C17.4902 27.7261 17.7415 27.7261 17.9509 27.835L25.339 31.7217C26.1515 32.1489 27.1148 32.0819 27.8603 31.5374C28.6058 31.0013 28.966 30.0967 28.8152 29.192L27.4079 20.9663C27.3661 20.7318 27.4415 20.4972 27.6174 20.3297L33.5982 14.4997ZM26.1264 30.2307L18.7383 26.344C18.3865 26.1597 18.0096 26.0676 17.6242 26.0676C17.2389 26.0676 16.862 26.1597 16.5102 26.344L9.12211 30.2307C8.87082 30.3647 8.59442 30.3396 8.35988 30.1804C8.12534 30.0129 8.0248 29.7532 8.07505 29.4768L9.48229 21.2511C9.61632 20.4721 9.35669 19.6847 8.79547 19.1319L2.81466 13.3018C2.61363 13.1008 2.54659 12.8327 2.63035 12.5647C2.72249 12.2966 2.93192 12.1124 3.21672 12.0788L11.4759 10.881C12.2549 10.7637 12.9334 10.2779 13.2852 9.57429L16.9792 2.08573C17.2305 1.57477 18.018 1.57477 18.2692 2.08573L21.9632 9.57429C22.3151 10.2779 22.9852 10.7721 23.7642 10.881L32.0234 12.0788C32.3082 12.1207 32.5176 12.2966 32.6098 12.5647C32.6935 12.8327 32.6349 13.1008 32.4254 13.3018L26.4446 19.1319C25.8834 19.6847 25.6238 20.4721 25.7578 21.2511L27.165 29.4768C27.2153 29.7532 27.1064 30.0129 26.8802 30.1804C26.6541 30.348 26.3693 30.3647 26.118 30.2391L26.1264 30.2307Z" fill="#E13A3A"/>
</svg>
