<svg width="31" height="32" viewBox="0 0 31 32" fill="none" xmlns="http://www.w3.org/2000/svg">
<path d="M27.3655 19.3029C26.6286 17.4536 25.7287 15.6681 24.6872 13.9889C24.3896 13.5071 24.0849 13.0466 23.7873 12.6073C23.6598 12.4231 23.511 12.253 23.3339 12.09L20.1809 9.18501C19.8408 8.87325 19.3802 8.73863 18.9267 8.83074C18.4733 8.91577 18.0977 9.21336 17.8993 9.6314C17.7293 9.99275 17.6514 10.3754 17.6655 10.7509L12.4223 5.91865C11.5863 5.14634 10.2755 5.20302 9.50315 6.03909C9.15597 6.4217 8.97173 6.89643 8.95756 7.37115L8.90796 7.32864C8.50409 6.95311 7.97271 6.75471 7.42714 6.78305C6.87447 6.80431 6.3643 7.03813 5.98878 7.44908C5.61325 7.85295 5.42198 8.38437 5.44323 8.92995C5.44323 8.96537 5.44323 9.00078 5.44323 9.0433C5.20941 8.96536 4.9685 8.92992 4.72051 8.94409C4.16785 8.96535 3.65768 9.19917 3.28924 9.61012C2.9208 10.0211 2.72244 10.5454 2.7437 11.091C2.76495 11.6436 2.99877 12.1538 3.40973 12.5223L4.36624 13.4008C3.79941 13.4646 3.28216 13.7551 2.93497 14.2156C2.30437 15.0517 2.45318 16.2917 3.26092 17.0356L10.6439 23.8376C11.069 24.2344 11.5296 24.6028 12.0114 24.9287L14.1937 26.4238C14.5338 26.6576 14.888 26.8702 15.2423 27.0686L17.8923 28.5069C18.9338 29.0737 20.0675 29.3501 21.1941 29.3501C23.2205 29.3501 25.2115 28.4573 26.5648 26.7993C28.3007 24.6666 28.6054 21.712 27.3655 19.3029Z" fill="#46BFAF"/>
<path d="M14.4985 19.6218L6.67619 12.416C5.98182 11.7783 5.9393 10.6942 6.57699 9.99981C7.21467 9.30544 8.29876 9.26296 8.99313 9.90064L17.0492 17.3686L10.1906 11.006C9.4962 10.3683 9.45367 9.28419 10.0914 8.58982C10.729 7.89545 11.8131 7.85297 12.5075 8.49066L20.3298 15.6965L22.0444 17.2765L19.0048 14.4778C18.3458 13.8684 18.1616 12.9048 18.5442 12.0971C18.8631 11.4311 19.7275 11.2681 20.2731 11.7641L23.4261 14.6691C23.5749 14.8108 23.7095 14.9596 23.83 15.1297C24.1275 15.5619 24.4251 16.0153 24.7227 16.4901C25.8634 18.3252 26.7208 20.1107 27.3727 21.7474C28.563 24.0643 28.2725 26.8702 26.6287 28.8895C24.6377 31.3411 21.1729 32.0212 18.4025 30.512L15.7526 29.0737C15.4054 28.8824 15.0653 28.6769 14.7323 28.4502L12.55 26.9552C12.0823 26.6364 11.636 26.2821 11.2179 25.8994L3.84203 19.0975C3.18309 18.4881 3.02011 17.4678 3.5586 16.7522C4.17503 15.9303 5.35121 15.8382 6.08809 16.5184L11.7493 21.712L12.1532 22.0804L3.99084 14.5841C3.29647 13.9464 3.25395 12.8624 3.89164 12.168C4.52932 11.4736 5.61337 11.4311 6.30774 12.0688L14.3072 19.4376" fill="#B6EDE5"/>
<path d="M14.4985 19.6218L6.67619 12.416C5.98182 11.7783 5.9393 10.6942 6.57699 9.99981C7.21467 9.30544 8.29876 9.26296 8.99313 9.90064L17.0492 17.3686L10.1906 11.006C9.4962 10.3683 9.45367 9.28419 10.0914 8.58982C10.729 7.89545 11.8131 7.85297 12.5075 8.49066L20.3298 15.6965L22.0444 17.2765L19.0048 14.4778C18.3458 13.8684 18.1616 12.9048 18.5442 12.0971C18.8631 11.4311 19.7275 11.2681 20.2731 11.7641L23.4261 14.6691C23.5749 14.8108 23.7095 14.9596 23.83 15.1297C24.1275 15.5619 24.4251 16.0153 24.7227 16.4901C25.8634 18.3252 26.7208 20.1107 27.3727 21.7474C28.563 24.0643 28.2725 26.8702 26.6287 28.8895C24.6377 31.3411 21.1729 32.0212 18.4025 30.512L15.7526 29.0737C15.4054 28.8824 15.0653 28.6769 14.7323 28.4502L12.55 26.9552C12.0823 26.6364 11.636 26.2821 11.2179 25.8994L3.84203 19.0975C3.18309 18.4881 3.02011 17.4678 3.5586 16.7522C4.17503 15.9303 5.35121 15.8382 6.08809 16.5184L11.7493 21.712L12.1532 22.0804L3.99084 14.5841C3.29647 13.9464 3.25395 12.8624 3.89164 12.168C4.52932 11.4736 5.61337 11.4311 6.30774 12.0688L14.3072 19.4376" stroke="#B6EDE5" stroke-miterlimit="10"/>
<path d="M28.0174 21.4781C27.2734 19.6147 26.3665 17.8079 25.3107 16.1074C25.0061 15.6256 24.7085 15.158 24.3967 14.7116C24.255 14.5061 24.085 14.3148 23.8937 14.1306L20.7406 11.2256C20.3155 10.8359 19.7487 10.6729 19.1748 10.7792C18.608 10.8926 18.1403 11.2539 17.8923 11.7711C17.8073 11.9412 17.7435 12.1254 17.701 12.3096L12.9751 7.95214C12.4933 7.50576 11.8697 7.29318 11.2391 7.31444C10.5944 7.34278 9.9992 7.61914 9.5599 8.09386C9.31191 8.3631 9.12769 8.689 9.0214 9.03618C8.06488 8.49061 6.82492 8.66068 6.04553 9.50384C5.69126 9.89354 5.47161 10.3824 5.42201 10.8996C5.29447 10.8855 5.16694 10.8784 5.03232 10.8855C4.38755 10.9138 3.79238 11.1902 3.35309 11.6649C2.91379 12.1396 2.68704 12.756 2.71538 13.4008C2.74372 14.0456 3.02008 14.6408 3.4948 15.0801L3.96951 15.5193C3.57981 15.6823 3.23265 15.9515 2.97049 16.2987C2.23361 17.2765 2.39654 18.7219 3.3389 19.5934L10.7219 26.3954C11.1612 26.7993 11.6359 27.1819 12.1319 27.522L14.3142 29.017C14.6684 29.2579 15.0298 29.4776 15.3912 29.676L18.0411 31.1143C19.1039 31.6953 20.3084 32 21.513 32C23.7165 32 25.7713 31.0222 27.16 29.3146C28.981 27.0756 29.314 23.9793 28.0174 21.464V21.4781ZM18.7213 29.8815L16.0714 28.4431C15.7455 28.266 15.4195 28.0676 15.1148 27.855L12.9326 26.36C12.5003 26.0624 12.0752 25.7294 11.6855 25.368L4.3025 18.5661C3.89155 18.1834 3.79946 17.567 4.10414 17.1703C4.28127 16.9364 4.52926 16.7947 4.81268 16.7664C4.84102 16.7664 4.87645 16.7664 4.90479 16.7664C5.15986 16.7664 5.40078 16.8585 5.585 17.0356L11.6501 22.5976C11.9335 22.8598 12.387 22.8386 12.6491 22.5551C12.9113 22.2646 12.89 21.8183 12.6066 21.5561L4.44422 14.0598C4.24583 13.8826 4.13246 13.6346 4.12537 13.3654C4.1112 13.0961 4.21043 12.8411 4.38757 12.6498C4.5647 12.4514 4.81267 12.338 5.07483 12.3309C5.33699 12.3026 5.60625 12.4159 5.79756 12.5931L6.03134 12.8056C6.07386 12.8552 6.12346 12.8977 6.17306 12.9473L13.9954 20.1532C14.1371 20.2807 14.3284 20.3445 14.5055 20.3374C14.6968 20.3303 14.8669 20.2524 15.0015 20.1107C15.2636 19.8202 15.2495 19.3738 14.959 19.1116L14.8243 18.9912C14.8243 18.9912 14.7818 18.9416 14.7535 18.9203L7.05874 11.8349C6.71864 11.4523 6.72574 10.8713 7.07292 10.4887C7.44845 10.0848 8.07905 10.0565 8.49 10.432L16.539 17.9C16.6807 18.0276 16.865 18.1055 17.0492 18.0913C17.2405 18.0843 17.4105 17.9992 17.5381 17.8646C17.6656 17.7229 17.7364 17.5457 17.7293 17.3544C17.7223 17.1631 17.6443 16.9931 17.5026 16.8585L10.6369 10.4958C10.4385 10.3186 10.3251 10.0707 10.318 9.80142C10.311 9.53217 10.4031 9.27709 10.5802 9.07869C10.7573 8.8803 11.0053 8.76693 11.2746 8.75984C11.5367 8.74567 11.7989 8.84491 11.9973 9.02204L21.5342 17.8079C21.6759 17.9354 21.8602 17.9992 22.0444 17.9992C22.2357 17.9921 22.4057 17.9071 22.5333 17.7725C22.6608 17.6308 22.7317 17.4536 22.7175 17.2623C22.7104 17.071 22.6325 16.901 22.4908 16.7735L19.4511 13.9676C19.0189 13.5709 18.8984 12.9402 19.1464 12.4088C19.2031 12.2955 19.2952 12.2175 19.4157 12.1963C19.5361 12.175 19.6566 12.2105 19.7487 12.2884L22.9017 15.1934C23.0221 15.2997 23.1143 15.4131 23.1993 15.5335C23.4898 15.9587 23.7874 16.405 24.0708 16.8655C25.0769 18.481 25.9555 20.224 26.6924 22.0733C27.7552 24.1423 27.493 26.6434 26.0264 28.4431C24.2479 30.6254 21.1587 31.2347 18.6859 29.8885L18.7213 29.8815Z" fill="#46BFAF"/>
<path d="M4.8551 1.24227V1.22813C4.60712 0.73924 4.21035 0.477066 3.72146 0.505408C3.23257 0.533749 2.772 0.873836 2.60195 1.33439C2.43899 1.78077 2.57359 2.24842 2.97746 2.63103C2.97746 2.63103 5.01809 4.31735 5.05352 4.35277C5.14563 4.4378 5.26606 4.48031 5.38651 4.48031C5.49988 4.48031 5.60617 4.44491 5.70536 4.37405C5.91084 4.22526 5.98169 3.96309 5.8825 3.75053L4.84092 1.24937L4.8551 1.24227Z" fill="#B6EDE5" stroke="#B6EDE5" stroke-miterlimit="10"/>
<path d="M2.43909 4.35988C2.08482 3.99852 1.53923 3.9135 1.05034 4.14023C0.561447 4.36697 0.278017 4.84169 0.327615 5.33767C0.348871 5.67068 0.497684 5.97533 0.745673 6.20206C0.972406 6.40754 1.26291 6.52092 1.58884 6.52092C1.61718 6.52092 1.64552 6.52092 1.68095 6.52092C1.7518 6.50675 1.95017 6.49968 2.18399 6.49259C3.21845 6.45716 3.59399 6.4288 3.70027 6.20916C3.77113 6.10996 3.80657 5.99661 3.80657 5.86907C3.80657 5.72028 3.74281 5.58563 3.63653 5.48643L2.44614 4.35988H2.43909Z" fill="#46BFAF"/>
<path d="M8.48299 0.0165248C7.79571 0.108635 7.3139 0.739249 7.41309 1.44779C7.43435 1.51864 7.44854 1.71701 7.47688 1.95082C7.59025 2.97821 7.64693 3.35376 7.87366 3.43878C7.95869 3.49547 8.05786 3.52381 8.16414 3.52381C8.1854 3.52381 8.19958 3.52381 8.22084 3.52381C8.36255 3.50963 8.49718 3.43876 8.58929 3.32539L9.62373 2.05003C9.95675 1.66742 9.99928 1.11477 9.73712 0.647136C9.47496 0.179499 8.98606 -0.0685 8.49009 0.0165248H8.48299Z" fill="#46BFAF"/>
<path d="M27.8757 4.5016C28.2229 4.08356 28.2937 3.60175 28.0741 3.17663C27.8474 2.74442 27.3372 2.46099 26.8625 2.50351C26.3878 2.53893 26.0193 2.85777 25.8351 3.38209L25.1265 5.98951C25.0557 6.22333 25.1549 6.4713 25.3816 6.59175C25.4666 6.64135 25.5588 6.66263 25.6438 6.66263C25.7855 6.66263 25.9272 6.60596 26.0193 6.49259L27.8686 4.51574L27.8828 4.5016H27.8757Z" fill="#B6EDE5" stroke="#B6EDE5" stroke-miterlimit="10"/>
<path d="M22.257 2.08541C21.9594 2.24129 21.7468 2.50348 21.6405 2.82232C21.5414 3.14116 21.5697 3.48122 21.7398 3.80007C21.7823 3.87092 21.8744 4.05517 21.9806 4.26773C22.4412 5.18174 22.6183 5.51476 22.8592 5.51476C22.8946 5.52185 22.9301 5.52891 22.9726 5.52891C23.1993 5.52891 23.4119 5.38723 23.4898 5.16049L24.0212 3.60879C24.1984 3.13407 24.0496 2.60264 23.6457 2.25546C23.2419 1.90827 22.6892 1.84452 22.257 2.0925V2.08541Z" fill="#46BFAF"/>
<path d="M30.4831 7.3074C30.1146 6.71931 29.3423 6.54219 28.733 6.9248C28.6692 6.9744 28.4921 7.08069 28.2866 7.20114C27.408 7.72546 27.0891 7.93093 27.1104 8.17184C27.0962 8.29229 27.1175 8.41273 27.1813 8.51901C27.2521 8.64655 27.3726 8.73156 27.5143 8.76699L29.1014 9.18504C29.2077 9.21338 29.3211 9.23465 29.4273 9.23465C29.8099 9.23465 30.1784 9.05043 30.4264 8.71033C30.7452 8.27812 30.7665 7.72544 30.4901 7.31449L30.4831 7.3074Z" fill="#46BFAF"/>
</svg>
