<svg width="24" height="24" viewBox="0 0 24 24" fill="none" xmlns="http://www.w3.org/2000/svg">
<path d="M12 24C18.6274 24 24 18.6274 24 12C24 5.37258 18.6274 0 12 0C5.37257 0 0 5.37258 0 12C0 18.6274 5.37257 24 12 24Z" fill="#B9E3F8"/>
<path d="M19.1267 14.8836L16.2157 13.2979C16.1095 13.2431 15.9828 13.2431 15.8801 13.3014C15.7774 13.3596 15.7123 13.4692 15.7089 13.589C15.6575 15.6747 13.4726 16.5 13.4486 16.5103C13.3527 16.5445 13.2773 16.6199 13.2431 16.7157C13.2089 16.8116 13.2191 16.9178 13.2705 17.0068L14.0068 18.2637C14.0684 18.3664 14.1815 18.4315 14.3013 18.4315H16.0547C17.8458 18.4315 19.3013 16.976 19.3013 15.1849C19.3013 15.0582 19.2328 14.9452 19.1232 14.8836H19.1267Z" fill="#2F7EA7"/>
<path d="M10.5513 16.5103C10.5308 16.5035 8.34587 15.685 8.2945 13.5891C8.2945 13.4692 8.22601 13.3596 8.12327 13.3014C8.02053 13.2432 7.89381 13.2398 7.78765 13.298L4.87669 14.8836C4.7671 14.9418 4.69861 15.0582 4.69861 15.185C4.69861 16.9761 6.15408 18.4315 7.94518 18.4315H9.6986C9.81846 18.4315 9.93148 18.3665 9.99313 18.2637L10.7294 17.0069C10.7808 16.9178 10.7911 16.8117 10.7568 16.7158C10.7226 16.6199 10.6472 16.5445 10.5513 16.5103Z" fill="#2F7EA7"/>
<path d="M16.0514 13.5993L15.75 13.4349C15.1918 13.1301 14.7774 12.6198 14.5959 12.0137L13.75 9.19519C13.6644 8.91436 13.613 8.62669 13.589 8.33217L13.274 4.25683C13.25 3.92464 12.9692 3.66779 12.637 3.66779C12.2843 3.66779 11.9966 3.95546 11.9966 4.3082V14.3424C11.9966 14.8698 12.2534 15.3664 12.6884 15.6678C12.9007 15.815 13.0788 16.0068 13.2089 16.2329L13.5616 16.8356C13.5616 16.8356 15.9897 15.9692 16.0479 13.6027L16.0514 13.5993Z" fill="white"/>
<path d="M7.94873 13.5993L8.2501 13.4349C8.80832 13.1301 9.2227 12.6198 9.40421 12.0137L10.2501 9.19519C10.3357 8.91436 10.3871 8.62669 10.4111 8.33217L10.7261 4.25683C10.7501 3.92464 11.0309 3.66779 11.3631 3.66779C11.7159 3.66779 12.0035 3.95546 12.0035 4.3082V14.3424C12.0035 14.8698 11.7467 15.3664 11.3117 15.6678C11.0994 15.815 10.9213 16.0068 10.7912 16.2329L10.4385 16.8356C10.4385 16.8356 8.01038 15.9692 7.95216 13.6027L7.94873 13.5993Z" fill="white"/>
<path d="M16.2158 13.2979L15.9144 13.1335C15.435 12.8733 15.0822 12.4383 14.9247 11.9144L14.0788 9.09587C14.0035 8.83902 13.9521 8.57533 13.9316 8.30478L13.6199 4.22943C13.5822 3.72258 13.1507 3.3219 12.6405 3.3219C12.3939 3.3219 12.1747 3.41437 12 3.56505C11.8288 3.41437 11.6062 3.3219 11.3596 3.3219C10.8494 3.3219 10.4213 3.71916 10.3802 4.22943L10.0651 8.30478C10.0446 8.5719 9.9932 8.83902 9.91786 9.09587L9.07196 11.9144C8.91443 12.4383 8.56169 12.8733 8.08223 13.1335L7.78087 13.2979C7.66786 13.3596 7.59936 13.4794 7.60278 13.6061C7.66785 16.2877 10.4042 17.1746 10.4316 17.1746C10.5514 17.1746 10.6644 17.1096 10.7261 17.0068L11.0788 16.4041C11.185 16.2226 11.3254 16.0685 11.5 15.9486C11.6953 15.8116 11.8631 15.6404 11.9966 15.4486C12.1302 15.6404 12.2946 15.8116 12.4932 15.9486C12.6679 16.0685 12.8083 16.2226 12.9144 16.4041L13.2672 17.0068C13.3288 17.1096 13.4418 17.1746 13.5617 17.1746C13.5994 17.1746 13.6405 17.1678 13.6747 17.1541C13.7021 17.1438 16.3254 16.1849 16.387 13.6061C16.387 13.476 16.322 13.3596 16.2089 13.2979H16.2158ZM13.7055 16.3972L13.5069 16.0616C13.3494 15.7945 13.1405 15.5685 12.887 15.3904C12.5446 15.1541 12.3425 14.7637 12.3425 14.3459V4.31163C12.3425 4.14724 12.4761 4.01368 12.6405 4.01368C12.7946 4.01368 12.9247 4.13355 12.935 4.28766L13.2501 8.363C13.274 8.68149 13.3322 8.99313 13.4247 9.29793L14.2706 12.1164C14.4795 12.8151 14.9487 13.3904 15.5891 13.7431L15.7021 13.8048C15.5583 15.3253 14.2843 16.1233 13.7124 16.4041L13.7055 16.3972ZM11.6576 14.3425C11.6576 14.7568 11.4555 15.1472 11.1131 15.387C10.8562 15.5651 10.6473 15.7911 10.4932 16.0582L10.2946 16.3972C9.72265 16.1164 8.44526 15.3185 8.30484 13.7979L8.41785 13.7363C9.05826 13.387 9.52744 12.8116 9.73635 12.1096L10.5822 9.29108C10.6747 8.98629 10.7329 8.67464 10.7569 8.35614L11.072 4.2808C11.0822 4.12669 11.2124 4.00683 11.3665 4.00683C11.5309 4.00683 11.6644 4.14039 11.6644 4.30478V14.339L11.6576 14.3425Z" fill="#46AFE6"/>
</svg>
