<svg width="24" height="24" viewBox="0 0 24 24" fill="none" xmlns="http://www.w3.org/2000/svg">
<path d="M12 24C18.6274 24 24 18.6274 24 12C24 5.37258 18.6274 0 12 0C5.3726 0 0 5.37258 0 12C0 18.6274 5.3726 24 12 24Z" fill="#C8E4AF"/>
<path d="M17.7362 13.3699C17.3801 12.476 16.9451 11.613 16.4417 10.8014C16.2979 10.5685 16.1506 10.3459 16.0068 10.1336C15.9451 10.0445 15.8732 9.96233 15.7876 9.88356L14.2636 8.47945C14.0993 8.32877 13.8766 8.2637 13.6575 8.30822C13.4383 8.34932 13.2568 8.49315 13.1609 8.69521C13.0787 8.86987 13.041 9.0548 13.0479 9.2363L10.5136 6.90069C10.1095 6.5274 9.47597 6.5548 9.10268 6.95891C8.93487 7.14384 8.84582 7.37329 8.83897 7.60274L8.815 7.58219C8.61979 7.40069 8.36295 7.3048 8.09926 7.31849C7.83213 7.32877 7.58555 7.44178 7.40404 7.64041C7.22253 7.83562 7.13008 8.09247 7.14036 8.35617C7.14036 8.37329 7.14036 8.39041 7.14036 8.41096C7.02734 8.37329 6.9109 8.35617 6.79103 8.36302C6.52391 8.37329 6.27733 8.4863 6.09925 8.68493C5.92116 8.88356 5.82529 9.13699 5.83556 9.40069C5.84584 9.66781 5.95885 9.91439 6.15748 10.0925L6.6198 10.5171C6.34583 10.548 6.09582 10.6884 5.92801 10.911C5.62322 11.3151 5.69514 11.9144 6.08555 12.274L9.65404 15.5616C9.85952 15.7534 10.0821 15.9315 10.315 16.089L11.3698 16.8116C11.5342 16.9247 11.7054 17.0274 11.8766 17.1233L13.1575 17.8185C13.6609 18.0925 14.2088 18.226 14.7534 18.226C15.7328 18.226 16.6951 17.7945 17.3493 16.9932C18.1883 15.9623 18.3356 14.5342 17.7362 13.3699Z" fill="#4E9019"/>
<path d="M11.5172 13.5239L7.73635 10.0411C7.40073 9.73285 7.38018 9.20888 7.6884 8.87326C7.99662 8.53765 8.5206 8.5171 8.85622 8.82532L12.7501 12.4349L9.43498 9.35956C9.09937 9.05134 9.07882 8.52737 9.38703 8.19175C9.69525 7.85614 10.2192 7.83559 10.5548 8.14381L14.3357 11.6267L15.1644 12.3904L13.6952 11.0376C13.3767 10.7431 13.2877 10.2774 13.4726 9.88696C13.6268 9.56504 14.0446 9.48627 14.3083 9.726L15.8322 11.1301C15.9042 11.1986 15.9692 11.2705 16.0275 11.3527C16.1713 11.5616 16.3151 11.7808 16.4589 12.0102C17.0103 12.8972 17.4247 13.7602 17.7398 14.5513C18.3151 15.6712 18.1747 17.0274 17.3802 18.0034C16.4178 19.1883 14.7432 19.5171 13.4042 18.7876L12.1233 18.0924C11.9555 18 11.7911 17.9007 11.6302 17.7911L10.5754 17.0685C10.3494 16.9144 10.1336 16.7431 9.93154 16.5582L6.36648 13.2705C6.04799 12.976 5.96922 12.4829 6.22949 12.137C6.52743 11.7397 7.09593 11.6952 7.45209 12.0239L10.1884 14.5342L10.3836 14.7123L6.43841 11.089C6.10279 10.7808 6.08224 10.2568 6.39046 9.92121C6.69868 9.58559 7.22264 9.56504 7.55826 9.87326L11.4247 13.4349" fill="white"/>
<path d="M18.0514 14.4212C17.6918 13.5206 17.2534 12.6473 16.7431 11.8253C16.5959 11.5925 16.4521 11.3664 16.3014 11.1507C16.2329 11.0514 16.1507 10.9589 16.0582 10.8699L14.5342 9.46576C14.3288 9.2774 14.0548 9.19863 13.7774 9.25C13.5034 9.3048 13.2774 9.47946 13.1575 9.72946C13.1164 9.81165 13.0856 9.90069 13.0651 9.98973L10.7808 7.88357C10.548 7.66782 10.2466 7.56507 9.94178 7.57535C9.63014 7.58905 9.34247 7.72261 9.13014 7.95206C9.01028 8.0822 8.92123 8.23973 8.86986 8.40754C8.40753 8.14384 7.80821 8.22604 7.4315 8.63357C7.26027 8.82193 7.1541 9.05823 7.13013 9.30823C7.06849 9.30138 7.00685 9.29795 6.94178 9.30138C6.63013 9.31508 6.34247 9.44863 6.13014 9.67809C5.91781 9.90754 5.80821 10.2055 5.82191 10.5171C5.83561 10.8288 5.96918 11.1164 6.19863 11.3288L6.42808 11.5411C6.23972 11.6199 6.07192 11.75 5.94521 11.9178C5.58905 12.3904 5.6678 13.089 6.12328 13.5103L9.69179 16.798C9.90412 16.9932 10.1336 17.1781 10.3733 17.3425L11.4281 18.0651C11.5993 18.1815 11.774 18.2877 11.9486 18.3836L13.2294 19.0788C13.7431 19.3596 14.3253 19.5069 14.9075 19.5069C15.9726 19.5069 16.9657 19.0343 17.637 18.2089C18.5171 17.1267 18.6781 15.6301 18.0514 14.4144V14.4212ZM13.5582 18.4829L12.2774 17.7877C12.1199 17.7021 11.9623 17.6062 11.8151 17.5034L10.7603 16.7808C10.5514 16.637 10.3459 16.476 10.1575 16.3014L6.58903 13.0137C6.3904 12.8288 6.34589 12.5308 6.49315 12.339C6.57877 12.226 6.69863 12.1575 6.83562 12.1438C6.84931 12.1438 6.86644 12.1438 6.88014 12.1438C7.00342 12.1438 7.11987 12.1884 7.20891 12.274L10.1404 14.9623C10.2774 15.089 10.4966 15.0788 10.6233 14.9418C10.75 14.8014 10.7397 14.5856 10.6027 14.4589L6.65753 10.8356C6.56164 10.75 6.50684 10.6301 6.50341 10.5C6.49656 10.3699 6.54453 10.2466 6.63014 10.1541C6.71576 10.0582 6.83561 10.0034 6.96233 10C7.08904 9.98631 7.21918 10.0411 7.31165 10.1267L7.42465 10.2295C7.44519 10.2534 7.46917 10.274 7.49314 10.298L11.274 13.7808C11.3425 13.8425 11.4349 13.8733 11.5205 13.8699C11.613 13.8664 11.6952 13.8288 11.7603 13.7603C11.887 13.6199 11.8801 13.4041 11.7397 13.2774L11.6747 13.2192C11.6747 13.2192 11.6541 13.1952 11.6404 13.1849L7.92123 9.76028C7.75684 9.57535 7.76027 9.29453 7.92808 9.1096C8.10959 8.91439 8.41438 8.90069 8.61301 9.0822L12.5034 12.6918C12.5719 12.7534 12.661 12.7911 12.75 12.7843C12.8425 12.7808 12.9247 12.7397 12.9863 12.6747C13.048 12.6062 13.0822 12.5206 13.0788 12.4281C13.0753 12.3356 13.0377 12.2534 12.9692 12.1884L9.65067 9.11302C9.55478 9.0274 9.50001 8.90754 9.49658 8.7774C9.49316 8.64727 9.53767 8.52398 9.62329 8.42809C9.70891 8.3322 9.82876 8.2774 9.9589 8.27398C10.0856 8.26713 10.2123 8.31507 10.3082 8.40069L14.9178 12.6473C14.9863 12.7089 15.0753 12.7397 15.1644 12.7397C15.2569 12.7363 15.339 12.6952 15.4007 12.6301C15.4623 12.5617 15.4966 12.476 15.4897 12.3836C15.4863 12.2911 15.4486 12.2089 15.3801 12.1473L13.9109 10.7911C13.702 10.5993 13.6438 10.2945 13.7637 10.0377C13.7911 9.98288 13.8356 9.94521 13.8938 9.93494C13.952 9.92466 14.0103 9.94179 14.0548 9.97946L15.5788 11.3836C15.637 11.4349 15.6815 11.4897 15.7226 11.548C15.863 11.7534 16.0068 11.9692 16.1438 12.1918C16.6301 12.9726 17.0548 13.8151 17.411 14.7089C17.9247 15.7089 17.7979 16.9178 17.089 17.7877C16.2295 18.8425 14.7363 19.137 13.5411 18.4863L13.5582 18.4829Z" fill="#5AC235"/>
<path d="M6.85618 4.64043V4.63358C6.73631 4.39728 6.54454 4.27057 6.30824 4.28427C6.07194 4.29797 5.84933 4.46235 5.76714 4.68495C5.68837 4.90071 5.75343 5.12674 5.94863 5.31167C5.94863 5.31167 6.93495 6.12674 6.95208 6.14386C6.9966 6.18496 7.05481 6.2055 7.11302 6.2055C7.16782 6.2055 7.21919 6.18838 7.26714 6.15413C7.36645 6.08221 7.4007 5.9555 7.35275 5.85276L6.84932 4.64386L6.85618 4.64043Z" fill="white"/>
<path d="M5.6883 6.15068C5.51707 5.97602 5.25337 5.93492 5.01706 6.04451C4.78076 6.1541 4.64377 6.38355 4.66774 6.62328C4.67802 6.78424 4.74994 6.9315 4.86981 7.04109C4.9794 7.1404 5.11981 7.1952 5.27734 7.1952C5.29104 7.1952 5.30474 7.1952 5.32186 7.1952C5.35611 7.18835 5.45199 7.18492 5.565 7.1815C6.065 7.16438 6.24651 7.15068 6.29788 7.04452C6.33213 6.99657 6.34926 6.94177 6.34926 6.88013C6.34926 6.80821 6.31844 6.74314 6.26707 6.6952L5.69171 6.15068H5.6883Z" fill="#5AC235"/>
<path d="M8.60957 4.0479C8.27737 4.09242 8.04449 4.39722 8.09244 4.73969C8.10271 4.77393 8.10957 4.86982 8.12327 4.98284C8.17806 5.47941 8.20546 5.66092 8.31505 5.70201C8.35615 5.72941 8.40408 5.74311 8.45545 5.74311C8.46573 5.74311 8.47258 5.74311 8.48285 5.74311C8.55135 5.73626 8.61642 5.70201 8.66094 5.64722L9.16093 5.03078C9.32189 4.84585 9.34245 4.57873 9.21574 4.3527C9.08902 4.12667 8.85272 4.00681 8.61299 4.0479H8.60957Z" fill="#4E9019"/>
<path d="M17.9829 6.21919C18.1507 6.01714 18.1849 5.78426 18.0788 5.57878C17.9692 5.36988 17.7226 5.23289 17.4931 5.25344C17.2637 5.27056 17.0856 5.42467 16.9966 5.6781L16.6541 6.93837C16.6198 7.05138 16.6678 7.17125 16.7774 7.22946C16.8185 7.25344 16.863 7.26371 16.9041 7.26371C16.9726 7.26371 17.0411 7.23631 17.0856 7.18152L17.9794 6.22604L17.9863 6.21919H17.9829Z" fill="white"/>
<path d="M15.2672 5.05139C15.1233 5.12673 15.0206 5.25345 14.9692 5.40756C14.9213 5.56167 14.935 5.72605 15.0172 5.88016C15.0377 5.91441 15.0822 6.00345 15.1336 6.10619C15.3562 6.54797 15.4418 6.70893 15.5583 6.70893C15.5754 6.71235 15.5925 6.71578 15.6131 6.71578C15.7227 6.71578 15.8254 6.64728 15.8631 6.53769L16.1199 5.78769C16.2055 5.55824 16.1336 5.30139 15.9384 5.13358C15.7432 4.96578 15.4761 4.93495 15.2672 5.05482V5.05139Z" fill="#5AC235"/>
<path d="M19.2431 7.57195C19.065 7.2877 18.6918 7.20209 18.3972 7.38702C18.3664 7.41099 18.2808 7.46236 18.1815 7.52058C17.7568 7.774 17.6027 7.87332 17.613 7.98976C17.6061 8.04797 17.6164 8.1062 17.6472 8.15757C17.6815 8.21921 17.7397 8.2603 17.8082 8.27743L18.5753 8.47948C18.6267 8.49318 18.6815 8.50345 18.7329 8.50345C18.9178 8.50345 19.0959 8.41441 19.2157 8.25003C19.3699 8.04112 19.3801 7.774 19.2466 7.57537L19.2431 7.57195Z" fill="#4E9019"/>
</svg>
