<svg width="24" height="24" viewBox="0 0 24 24" fill="none" xmlns="http://www.w3.org/2000/svg">
<path d="M12 24C18.6274 24 24 18.6274 24 12C24 5.37259 18.6274 0 12 0C5.37258 0 0 5.37259 0 12C0 18.6274 5.37258 24 12 24Z" fill="#FAEA9C"/>
<path d="M16.2397 9.75003C16.2397 7.35277 14.25 5.41784 11.8288 5.51373C9.66437 5.59935 7.86643 7.37674 7.76369 9.54455C7.70889 10.685 8.10615 11.7329 8.79108 12.524C9.31848 13.1336 9.64382 13.8939 9.64382 14.7021V14.9589H14.1473C14.1473 14.0857 14.5171 13.2706 15.1096 12.6302C15.8116 11.8733 16.2397 10.863 16.2397 9.75003Z" fill="white"/>
<path d="M15.1781 6.44863C14.274 5.57877 13.0754 5.13014 11.8185 5.17123C9.46577 5.2637 7.53426 7.17466 7.42467 9.5274C7.36645 10.7123 7.76371 11.8527 8.53426 12.7466C9.03083 13.3219 9.3048 14.0137 9.3048 14.7021V14.9589C9.3048 15.1473 9.45891 15.3014 9.64727 15.3014H14.1507C14.3391 15.3014 14.4932 15.1473 14.4932 14.9589C14.4932 14.2123 14.8014 13.4692 15.363 12.8664C16.1507 12.0171 16.5856 10.911 16.5856 9.75342C16.5856 8.49657 16.0856 7.32192 15.1781 6.45205V6.44863ZM9.98631 14.6164C9.96576 13.7945 9.63357 12.976 9.05138 12.3014C8.39385 11.5411 8.05823 10.5685 8.10617 9.56164C8.20206 7.56164 9.84247 5.93493 11.8459 5.85959C12.9144 5.81164 13.9281 6.19863 14.7021 6.9452C15.4726 7.68836 15.8973 8.68493 15.8973 9.75342C15.8973 10.7363 15.5274 11.6781 14.8562 12.3973C14.2637 13.0342 13.9007 13.8151 13.8185 14.6164H9.98288H9.98631Z" fill="#D1AF00"/>
<path d="M14.1473 14.5411H9.64386C9.4555 14.5411 9.30139 14.6952 9.30139 14.8836V16.2398C9.30139 17.6713 10.4658 18.8322 11.8939 18.8322C13.3219 18.8322 14.4863 17.6678 14.4863 16.2398V14.8836C14.4863 14.6952 14.3322 14.5411 14.1439 14.5411H14.1473Z" fill="#D1AF00"/>
<g clip-path="url(#clip0_5372_4884)">
<path d="M12.99 16.0719H12.4665L12.4944 11.8742H11.5067V16.0683H10.9832V11.8778H10.3934C10.17 11.8707 9.86287 11.8098 9.59762 11.5808C9.3219 11.3339 9.1474 10.9402 9.13693 10.5251C9.12646 10.1458 9.25908 9.80227 9.50339 9.56609C9.89777 9.18318 10.533 9.11161 10.9902 9.39432C11.1298 9.4802 11.2484 9.59829 11.3427 9.73786C11.4544 9.90247 11.5102 10.1029 11.5102 10.3104V11.3375H12.5014L12.5084 10.3247C12.5084 9.95615 12.6933 9.62334 12.983 9.45873C13.3948 9.2297 13.866 9.35137 14.1522 9.57324C14.4314 9.78795 14.6059 10.1673 14.6199 10.5824C14.6338 10.9939 14.4838 11.3804 14.2255 11.6094C14.0335 11.7776 13.7788 11.8707 13.4856 11.8778H13.0214L12.9935 16.0754L12.99 16.0719ZM10.3654 9.75933C10.184 9.75933 9.99549 9.82732 9.86287 9.95615C9.72676 10.0886 9.65346 10.2854 9.66044 10.5144C9.66742 10.7756 9.77562 11.0261 9.94314 11.1728C10.0932 11.3017 10.2782 11.3375 10.4073 11.341H10.9867V10.314C10.9867 10.2138 10.9588 10.1208 10.9099 10.0456C10.8575 9.96688 10.7912 9.90247 10.7179 9.85595C10.6167 9.79153 10.4911 9.75933 10.3689 9.75933H10.3654ZM13.4542 9.87026C13.3809 9.87026 13.3076 9.88457 13.2378 9.92394C13.1087 9.99551 13.0284 10.1565 13.0284 10.3283L13.0214 11.3375H13.4751C13.5868 11.3375 13.7543 11.3088 13.8765 11.2015C14.0161 11.0762 14.0998 10.8472 14.0894 10.5967C14.0824 10.3426 13.9847 10.1172 13.8311 9.99909C13.7473 9.93467 13.6008 9.86668 13.4507 9.86668L13.4542 9.87026Z" fill="#D1AF00"/>
</g>
<defs>
<clipPath id="clip0_5372_4884">
<rect width="5.47945" height="6.84931" fill="white" transform="translate(9.13696 9.2226)"/>
</clipPath>
</defs>
</svg>
