<svg xmlns="http://www.w3.org/2000/svg" viewBox="0 0 24 24"><path d="m 121.95968,74.267188 c -0.16884,-0.0019 -0.35538,0.02385 -0.55638,0.08496 -1.01724,0.31027 -0.99543,1.590251 -0.52212,2.399773 l 5.17421,8.84792 c 0.62754,1.07303 1.63035,1.589328 2.46555,0.987407 1.08827,-0.784345 -0.0154,-2.406832 -0.30924,-2.901368 l -4.50782,-7.970466 c -0.33577,-0.593506 -0.82631,-1.435713 -1.7452,-1.448413 z m -4.59832,0.04242 c -0.79862,0 -1.44162,0.539752 -1.44162,1.210204 v 0.0081 c -0.0192,0.156578 -0.0192,0.320886 0,0.489998 v 3.130699 a 1.5685914,1.6359356 0 0 0 -0.44931,-0.06877 1.5685914,1.6359356 0 0 0 -1.56835,1.63589 1.5685914,1.6359356 0 0 0 1.56835,1.635906 1.5685914,1.6359356 0 0 0 0.44931,-0.06912 v 3.283031 c 0,0.670445 0.643,1.210208 1.44162,1.210208 0.79842,0 1.44131,-0.539763 1.44131,-1.210208 v -4.309842 l 2.48366,4.372065 c 0.61401,1.080831 1.76497,1.516825 2.56905,0.87383 0.85639,-0.684979 -0.002,-2.295827 -0.27885,-2.792852 l -4.3417,-7.868673 c -0.19039,-0.343386 -0.39089,-0.655487 -0.6107,-0.905884 -0.24346,-0.37404 -0.71781,-0.626579 -1.26393,-0.626579 z m -3.0022,0.222732 a 1.0387776,1.0833756 0 0 0 -1.03878,1.08343 1.0387776,1.0833756 0 0 0 1.03878,1.083416 1.0387776,1.0833756 0 0 0 1.03873,-1.083416 1.0387776,1.0833756 0 0 0 -1.03873,-1.08343 z m 12.06335,1.530109 a 0.93653725,0.97674554 0 0 0 -0.93651,0.976719 0.93653725,0.97674554 0 0 0 0.93651,0.976738 0.93653725,0.97674554 0 0 0 0.93669,-0.976738 0.93653725,0.97674554 0 0 0 -0.93669,-0.976719 z m -12.30378,7.583184 a 1.1834075,1.2342147 0 0 0 -1.18331,1.23432 1.1834075,1.2342147 0 0 0 1.18331,1.234119 1.1834075,1.2342147 0 0 0 1.18354,-1.234119 1.1834075,1.2342147 0 0 0 -1.18354,-1.23432 z" /></svg>